<?xml version="1.0" encoding="utf-8"?>
<!-- Generator: Adobe Illustrator 23.0.3, SVG Export Plug-In . SVG Version: 6.00 Build 0)  -->
<svg version="1.1" id="Layer_1" xmlns="http://www.w3.org/2000/svg" xmlns:xlink="http://www.w3.org/1999/xlink" x="0px" y="0px"
	 viewBox="0 0 17 17" style="enable-background:new 0 0 17 17;" xml:space="preserve">
<style type="text/css">
	.st0{fill-rule:evenodd;clip-rule:evenodd;fill:#777777;}
</style>
<path class="st0" d="M14.9,15.1H2.1c-1.1,0-2.1-0.9-2.1-2.1V4.1c0-1.2,0.9-2.1,2.1-2.1h12.7c1.1,0,2.1,0.9,2.1,2.1v8.9
	C16.9,14.1,16,15.1,14.9,15.1z M16,12.9V4.1c0-0.6-0.5-1.1-1.1-1.1H2.1C1.5,2.9,1,3.4,1,4.1v8.9c0,0.6,0.5,1.1,1.1,1.1h12.7
	C15.5,14.1,16,13.6,16,12.9L16,12.9z M14.9,13.1c-0.1,0.1-0.2,0.1-0.3,0.1c-0.1,0-0.2,0-0.3-0.1L10,9l-1.2,1.1
	c-0.1,0.1-0.2,0.1-0.3,0.1c-0.1,0-0.2,0-0.3-0.1l-1.1-1l-4.2,4c-0.1,0.1-0.2,0.1-0.3,0.1c-0.1,0-0.3-0.1-0.3-0.2
	c-0.2-0.2-0.2-0.5,0-0.7l4.2-4L2.2,4.6C2,4.4,2,4.1,2.1,3.9c0.2-0.2,0.5-0.2,0.7,0L7.3,8c0,0,0.1,0,0.1,0.1c0,0,0,0,0,0l1.1,1
	l5.7-5.2c0.2-0.2,0.5-0.2,0.7,0c0.2,0.2,0.2,0.5,0,0.7l-4.1,3.8l4.1,4C15,12.6,15,12.9,14.9,13.1z"/>
</svg>
