<?xml version="1.0" encoding="utf-8"?>
<!-- Generator: Adobe Illustrator 24.3.0, SVG Export Plug-In . SVG Version: 6.00 Build 0)  -->
<svg version="1.1" id="Layer_1" xmlns="http://www.w3.org/2000/svg" xmlns:xlink="http://www.w3.org/1999/xlink" x="0px" y="0px"
	 viewBox="0 0 17 17" style="enable-background:new 0 0 17 17;" xml:space="preserve">
<style type="text/css">
	.st0{fill-rule:evenodd;clip-rule:evenodd;fill:#777777;}
</style>
<path class="st0" d="M10.2,17H6.6c-2.5,0-4.5-2-4.5-4.5v-6c0-0.3,0.3-0.5,0.6-0.5h1.2V3.4c0-1.8,1.5-3.3,3.3-3.3h2.5
	c1.8,0,3.3,1.5,3.3,3.3v2.5h1.2c0.3,0,0.6,0.3,0.6,0.6v6C14.8,14.9,12.8,17,10.2,17z M11.8,3.4c0-1.2-1-2-2-2H7.1c-1.2,0-2,1-2,2
	v2.5h6.7L11.8,3.4L11.8,3.4z M13.6,7.1H3.3v5.4c0,1.8,1.5,3.3,3.3,3.3h3.7c1.8,0,3.3-1.5,3.3-3.3L13.6,7.1L13.6,7.1z M9.1,13.8
	c0,0.3-0.3,0.6-0.6,0.6s-0.6-0.3-0.6-0.6v-1.8c-0.1-0.1-0.1-0.2-0.1-0.3c0-0.3,0.3-0.6,0.6-0.6h0.2c0.3,0,0.6,0.3,0.6,0.6
	c0,0.1,0,0.2-0.1,0.3V13.8z"/>
</svg>
